<?xml version="1.0" encoding="utf-8"?>
<!-- Generator: Adobe Illustrator 23.1.0, SVG Export Plug-In . SVG Version: 6.00 Build 0)  -->
<svg version="1.1" id="圖層_1" xmlns="http://www.w3.org/2000/svg" xmlns:xlink="http://www.w3.org/1999/xlink" x="0px" y="0px"
	 viewBox="0 0 760 269" style="enable-background:new 0 0 760 269;" xml:space="preserve">
<style type="text/css">
	.st0{fill:#FFFFFF;}
	.st1{fill-rule:evenodd;clip-rule:evenodd;fill:#B20000;}
</style>
<g>
	<g>
		<path class="st0" d="M39.67,146.54c-7.77,9.82-18.27,21.68-13.23,34.91c-5.73,8.32-5.59,15.68,0.27,21.95
			c-0.55-3.95,1.36-7.36,5.86-10.5c38.86-23.73,85.36,5.18,64.36,52.09c27.95-40.63-1.5-54.27-25.5-77.31
			c-21.73-20.74-9.62-41.13,10.29-58.89c-9.35,7.11-18.04,13.75-25.22,19.24C52.26,132.23,45.77,138.97,39.67,146.54z M37.35,176.26
			c6.68-10.23,10.09-15.27,10.09-15.27C48.26,171.49,44.85,176.53,37.35,176.26z"/>
	</g>
	<path id="SVGID_1_" class="st1" d="M84.53,260.66c40.22-23.04,55.5-46.91,46.09-71.86c27,9.54,46.36,4.09,58.09-16.23
		c0,0-22.23-1.91-66.81-5.73c0,0,14.32-1.09,43.09-3.41c23.45-2.59,38.04-15,44.04-37.36c0,0-31.63,6.14-95.04,18.13
		c0,0,24.82-7.91,74.58-23.86c19.77-6.68,30.54-22.91,31.91-48.81c0,0-38.04,17.45-114.13,52.36c0,0,25.36-15.27,76.22-45.81
		c26.18-17.73,37.36-40.77,33.68-69.27c0,0-39.68,29.18-119.04,87.54c-27.54,20.32-52.77,45.54-25.77,71.31
		c24,23.04,53.45,36.68,25.5,77.31c21-46.91-25.5-75.81-64.36-52.09c-4.5,3.14-6.41,6.54-5.86,10.5c-5.86-6.27-6-13.64-0.27-21.95
		c-5.05-13.23,5.45-25.09,13.23-34.91c10.23-12.68,21.54-23.04,21.54-23.04c-12.95,9.27-43.36,32.86-51.27,50.31
		c-8.59,18.54,2.86,31.63,21.13,37.91C53.44,219.21,101.16,222.62,84.53,260.66L84.53,260.66z M37.35,176.26
		c7.5,0.27,10.91-4.77,10.09-15.27C47.44,160.99,44.03,166.03,37.35,176.26L37.35,176.26z"/>
</g>
<g>
	<g>
		<path d="M406.66,74.31l-45.51,106.67c-0.53,1.25-1.76,2.06-3.12,2.06s-2.58-0.81-3.12-2.06l-19.65-46.05l-19.66,46.05
			c-0.53,1.25-1.76,2.06-3.11,2.06c-1.35,0-2.58-0.81-3.11-2.06L263.84,74.31c-0.73-1.72,0.07-3.71,1.79-4.45
			c1.72-0.73,3.71,0.06,4.44,1.79l42.42,99.38l19.07-44.7l-22.19-52.01c-0.45-1.05-0.34-2.25,0.28-3.2
			c0.63-0.95,1.69-1.52,2.83-1.52h45.54c1.14,0,2.2,0.57,2.82,1.52c0.63,0.95,0.74,2.15,0.29,3.2l-12.28,28.76
			c-0.74,1.72-2.73,2.52-4.44,1.79c-1.72-0.73-2.52-2.72-1.79-4.44l10.27-24.05h-35.28l20.59,48.3c0.06,0.11,0.12,0.22,0.17,0.34
			l19.64,46.03l42.4-99.37c0.73-1.72,2.73-2.52,4.45-1.79C406.59,70.6,407.39,72.59,406.66,74.31z"/>
		<path d="M426.2,72.99v106.67c0,1.87-1.51,3.39-3.39,3.39s-3.39-1.52-3.39-3.39V72.99c0-1.87,1.52-3.39,3.39-3.39
			S426.2,71.12,426.2,72.99z"/>
		<path d="M536.51,72.98v106.68c0,1.42-0.88,2.69-2.21,3.18c-0.38,0.14-0.78,0.21-1.17,0.21c-0.97,0-1.92-0.42-2.58-1.19
			L439.49,75.18c-1.21-1.42-1.05-3.56,0.38-4.77c1.42-1.21,3.56-1.05,4.77,0.38l85.09,99.69V72.98c0-1.87,1.51-3.39,3.39-3.39
			C534.99,69.6,536.51,71.11,536.51,72.98z M510.32,177.46c1.21,1.42,1.04,3.56-0.38,4.77c-0.64,0.54-1.42,0.81-2.2,0.81
			c-0.96,0-1.91-0.4-2.58-1.19l-59.72-69.96v67.77c0,1.87-1.51,3.39-3.39,3.39s-3.39-1.52-3.39-3.39v-76.95
			c0-1.42,0.89-2.69,2.21-3.18c1.33-0.49,2.83-0.1,3.75,0.98L510.32,177.46z"/>
		<path d="M646.77,135.97v28.07c0,0.9-0.36,1.76-0.99,2.4c-10.71,10.71-24.96,16.61-40.11,16.61c-15.15,0-29.4-5.9-40.11-16.61
			c-10.71-10.71-16.61-24.96-16.61-40.11c0-15.15,5.9-29.4,16.61-40.11c10.71-10.71,24.96-16.61,40.11-16.61
			c15.15,0,29.4,5.9,40.11,16.61c1.32,1.32,1.32,3.47,0,4.79c-1.32,1.32-3.46,1.32-4.79,0c-9.43-9.43-21.98-14.63-35.32-14.63
			c-13.35,0-25.89,5.19-35.32,14.63c-9.43,9.43-14.63,21.98-14.63,35.32c0,13.34,5.2,25.89,14.63,35.32
			c9.44,9.43,21.98,14.63,35.32,14.63c12.88,0,25.02-4.84,34.33-13.67v-23.25h-29.09c-1.87,0-3.39-1.52-3.39-3.39
			c0-1.87,1.51-3.39,3.39-3.39h32.47C645.26,132.59,646.78,134.1,646.77,135.97z"/>
		<path d="M748.54,177.46c1.21,1.42,1.04,3.56-0.38,4.77c-0.64,0.54-1.42,0.81-2.2,0.81c-0.96,0-1.91-0.4-2.58-1.19L652.33,75.19
			c-1.21-1.42-1.05-3.56,0.38-4.78c1.42-1.21,3.56-1.04,4.77,0.38l42.95,50.32l42.95-50.32c1.21-1.42,3.35-1.59,4.77-0.38
			c1.42,1.21,1.59,3.35,0.38,4.78l-43.65,51.14L748.54,177.46z M722.98,177.46c1.21,1.42,1.04,3.56-0.38,4.77
			c-0.64,0.54-1.42,0.81-2.2,0.81c-0.96,0-1.91-0.4-2.58-1.19l-30.18-35.36l-30.16,35.36c-0.67,0.79-1.62,1.19-2.58,1.19
			c-0.78,0-1.56-0.27-2.2-0.81c-1.42-1.21-1.59-3.35-0.38-4.78l32.74-38.38c0.06-0.07,0.13-0.12,0.2-0.19
			c0.06-0.06,0.11-0.13,0.18-0.19c0.02-0.02,0.04-0.02,0.06-0.04c0.1-0.08,0.21-0.15,0.32-0.22c0.08-0.05,0.16-0.11,0.24-0.15
			c0.11-0.06,0.22-0.1,0.34-0.14c0.09-0.04,0.18-0.08,0.28-0.11c0.11-0.03,0.22-0.05,0.34-0.07c0.1-0.02,0.2-0.04,0.3-0.05
			c0.11-0.01,0.23,0,0.34,0c0.1,0,0.21,0,0.31,0c0.11,0.01,0.22,0.04,0.33,0.06c0.1,0.02,0.21,0.04,0.31,0.07
			c0.1,0.03,0.2,0.07,0.3,0.11c0.11,0.04,0.21,0.08,0.32,0.14c0.09,0.05,0.17,0.11,0.25,0.16c0.1,0.07,0.21,0.13,0.31,0.21
			c0.02,0.02,0.04,0.02,0.06,0.04c0.07,0.06,0.12,0.13,0.19,0.19c0.06,0.06,0.14,0.12,0.19,0.19L722.98,177.46z"/>
	</g>
	<g>
		<g>
			<path d="M291.15,204.72v2.27h-7.85c-0.26,0-0.53,0-0.74,0c-3.06,0-5.32,0.32-7.12,0.95v10.81h11.91v2.27h-11.91v17.13h-6.17
				v-21.56v-7.75c2.27-2.9,7.49-4.11,13.02-4.11c0.32,0,0.69,0,1,0H291.15z"/>
			<path d="M302.75,206.09c0,10.44,0,20.82,0,31.26v0.79h-6.17c0-10.97,0-21.88,0-32.84L302.75,206.09z"/>
			<path d="M319.98,244.2l-1.9,5.8h-2.42l3.85-11.86h-5.11l-7.28-22.3h6.48l6.59,20.19l6.54-20.19h2.48L319.98,244.2z"/>
			<path d="M355.67,238.14h-4.38c-0.05-0.16-0.11-0.32-0.11-0.47l-1.11-21.83h6.17l0.84,16.19l10.07-14.45l0.16,0.21l9.96,14.23
				l0.84-16.19h6.17l-1.11,21.83c0,0.16-0.05,0.32-0.16,0.47h-4.32l-11.55-16.5L355.67,238.14z"/>
			<path d="M396.21,210.46c-0.47,2.16-6.59,2.11-7.12,0.11c-0.21-0.95-0.21-2.27,0-3.27c0.53-2.06,6.59-2.06,7.12,0.05
				C396.47,208.3,396.47,209.57,396.21,210.46z M389.56,238.14v-22.72l6.17,0.84v21.88H389.56z"/>
			<path d="M410.81,206.09v9.7h6.59v2.37h-6.59v19.19v0.79h-6.17v-19.98h-3.9v-2.37h3.9v-10.49L410.81,206.09z"/>
			<path d="M428.26,238.14h-6.17v-11.39v-21.46l6.17,0.79v10.02c2.32-0.79,5.11-1.16,7.91-1.16c6.17,0,12.39,1.95,13.34,5.75
				c0.47,1.79,0.69,3.95,0.69,6.06v11.39h-6.17v-11.39c0-1.74-0.11-3.48-0.37-4.9c-0.53-3.06-4.01-4.69-7.49-4.69
				c-2.95,0-5.85,0.58-7.91,1.69v7.96v10.54V238.14z"/>
			<path d="M498.05,234.03c-1.95,3.06-7.33,4.48-12.71,4.48c-6.22,0-12.49-1.95-13.44-5.75c-0.47-1.79-0.69-3.9-0.69-6.06
				c0-2.11,0.21-4.27,0.69-6.12c0.95-3.85,7.12-5.8,13.34-5.8c4.9,0,9.81,1.21,12.18,3.69l-2.42,1.63c-1.85-2.06-5.8-3.11-9.7-3.11
				c-3.48,0-7.01,1.58-7.54,4.74c-0.26,1.48-0.37,3.22-0.37,4.96s0.11,3.48,0.37,4.96c0.53,3.06,4.06,4.64,7.54,4.64
				c4.32,0,8.65-1.21,10.17-3.74L498.05,234.03z"/>
			<path d="M528.78,232.55c-1.95,8.07-24.83,7.8-26.78,0.21c-0.9-3.58-0.9-8.54,0-12.18c1.95-7.75,24.83-7.75,26.78,0.11
				C529.63,224.22,529.68,228.97,528.78,232.55z M507.85,221.74c-0.47,2.95-0.47,6.96,0,9.91c1.11,6.12,13.97,6.33,15.08-0.21
				c0.47-2.9,0.47-6.75-0.05-9.65C521.77,215.42,508.96,215.47,507.85,221.74z"/>
			<path d="M540.64,238.14h-6.17v-22.35l5.22,0.69c2.48-1.05,5.64-1.53,8.86-1.53c6.17,0,12.39,1.95,13.34,5.75
				c0.47,1.79,0.69,3.95,0.69,6.06v11.39h-6.17v-11.39c0-1.74-0.11-3.48-0.37-4.9c-0.53-3.06-4.01-4.69-7.49-4.69
				c-2.95,0-5.85,0.58-7.91,1.69v10.28V238.14z"/>
			<path d="M581.55,206.98c-3.48,0-6.96,1.58-7.54,4.69c-0.26,1.48-0.37,3.22-0.37,4.96v9.28h5.75v2.37h-5.75v9.86h-6.17v-21.51
				c0-2.11,0.21-4.27,0.69-6.06c1-3.9,7.17-5.85,13.39-5.85V206.98z"/>
			<path d="M592.93,210.46c-0.47,2.16-6.59,2.11-7.12,0.11c-0.21-0.95-0.21-2.27,0-3.27c0.53-2.06,6.59-2.06,7.12,0.05
				C593.2,208.3,593.2,209.57,592.93,210.46z M586.29,238.14v-22.72l6.17,0.84v21.88H586.29z"/>
			<path d="M624.93,232.76c-1,3.95-7.22,5.96-13.44,5.96c-6.17,0-12.39-1.95-13.34-5.85c-0.47-1.79-0.69-3.95-0.69-6.12
				c0-2.11,0.21-4.27,0.69-6.06c1-3.8,7.17-5.75,13.39-5.75c2.79,0,5.54,0.37,7.85,1.16v-10.02l6.17-0.79v21.51
				C625.57,228.91,625.35,231.02,624.93,232.76z M619.4,218.84c-2.06-1.11-4.96-1.69-7.85-1.69c-3.48,0-7.01,1.63-7.54,4.69
				c-0.26,1.42-0.37,3.22-0.37,4.9c0,1.74,0.11,3.48,0.37,4.96c0.53,3.16,4.01,4.74,7.49,4.74s6.96-1.58,7.54-4.8
				c0.26-1.42,0.37-3.16,0.37-4.85V218.84z"/>
			<path d="M636.63,231.65c0.53,3.06,4.06,4.64,7.54,4.64c4.32,0,8.65-1.21,10.17-3.74l2.58,1.48c-1.9,3.01-7.22,4.48-12.49,4.48
				c-6.33,0-12.65-1.85-13.65-5.75c-0.47-1.79-0.69-3.9-0.69-6.06c0-2.11,0.21-4.27,0.69-6.12c0.95-3.85,7.12-5.8,13.34-5.8
				c6.17,0,12.49,1.95,13.44,5.9c0.37,1.58,0.63,3.37,0.63,5.22v2.37h-21.88C636.37,229.44,636.42,230.6,636.63,231.65z
				 M651.66,221.8c-0.58-3.16-4.06-4.74-7.54-4.74c-3.43,0-6.96,1.58-7.49,4.69c-0.21,1.27-0.32,2.69-0.37,4.16h15.76
				C652.03,224.48,651.87,223.06,651.66,221.8z"/>
			<path d="M669.1,238.14h-6.17v-22.35l5.22,0.69c2.48-1.05,5.64-1.53,8.86-1.53c6.17,0,12.39,1.95,13.34,5.75
				c0.47,1.79,0.69,3.95,0.69,6.06v11.39h-6.17v-11.39c0-1.74-0.1-3.48-0.37-4.9c-0.53-3.06-4.01-4.69-7.49-4.69
				c-2.95,0-5.85,0.58-7.91,1.69v10.28V238.14z"/>
			<path d="M722.77,234.03c-1.95,3.06-7.33,4.48-12.71,4.48c-6.22,0-12.49-1.95-13.44-5.75c-0.47-1.79-0.69-3.9-0.69-6.06
				c0-2.11,0.21-4.27,0.69-6.12c0.95-3.85,7.12-5.8,13.34-5.8c4.9,0,9.81,1.21,12.18,3.69l-2.42,1.63c-1.85-2.06-5.8-3.11-9.7-3.11
				c-3.48,0-7.01,1.58-7.54,4.74c-0.26,1.48-0.37,3.22-0.37,4.96s0.11,3.48,0.37,4.96c0.53,3.06,4.06,4.64,7.54,4.64
				c4.32,0,8.65-1.21,10.17-3.74L722.77,234.03z"/>
			<path d="M732.57,231.65c0.53,3.06,4.06,4.64,7.54,4.64c4.32,0,8.65-1.21,10.17-3.74l2.58,1.48c-1.9,3.01-7.22,4.48-12.49,4.48
				c-6.33,0-12.65-1.85-13.65-5.75c-0.47-1.79-0.69-3.9-0.69-6.06c0-2.11,0.21-4.27,0.69-6.12c0.95-3.85,7.12-5.8,13.34-5.8
				c6.17,0,12.49,1.95,13.44,5.9c0.37,1.58,0.63,3.37,0.63,5.22v2.37h-21.88C732.31,229.44,732.36,230.6,732.57,231.65z
				 M747.6,221.8c-0.58-3.16-4.06-4.74-7.54-4.74c-3.43,0-6.96,1.58-7.49,4.69c-0.21,1.27-0.32,2.69-0.37,4.16h15.76
				C747.96,224.48,747.81,223.06,747.6,221.8z"/>
		</g>
	</g>
</g>
</svg>
